<?xml version="1.0" standalone="no"?>
<!DOCTYPE svg PUBLIC "-//W3C//DTD SVG 20010904//EN"
 "http://www.w3.org/TR/2001/REC-SVG-20010904/DTD/svg10.dtd">
<svg version="1.0" xmlns="http://www.w3.org/2000/svg"
 width="1280.000000pt" height="640.000000pt" viewBox="0 0 1280.000000 640.000000"
 preserveAspectRatio="xMidYMid meet">
<metadata>
Created by potrace 1.15, written by Peter Selinger 2001-2017
</metadata>
<g transform="translate(0.000000,640.000000) scale(0.100000,-0.100000)"
fill="#000000" stroke="none">
<path d="M7650 6079 c-250 -4 -518 -12 -596 -18 -77 -6 -258 -15 -403 -21
-390 -15 -626 -47 -809 -109 -123 -43 -183 -84 -279 -191 -66 -75 -96 -118
-138 -205 -133 -271 -210 -708 -245 -1393 -16 -331 -13 -1712 5 -1922 69 -798
165 -1277 294 -1463 24 -34 53 -61 84 -77 26 -14 56 -39 66 -56 25 -42 70 -68
177 -103 177 -58 427 -96 879 -136 148 -13 591 -35 930 -47 492 -17 2390 -17
2855 0 1116 41 1612 104 1685 216 13 19 26 26 49 26 67 1 162 63 227 150 190
254 299 769 351 1665 17 292 17 1371 0 1645 -42 678 -106 1079 -220 1383 -53
141 -112 239 -189 314 -35 35 -63 67 -63 71 0 13 -51 58 -85 75 -166 83 -623
145 -1315 177 -580 27 -2212 36 -3260 19z m-240 -1163 c0 -215 -2 -236 -19
-257 -19 -24 -20 -24 -280 -27 l-261 -3 0 -1600 0 -1599 -218 0 -219 0 -24 26
-24 26 -3 1534 c-2 1525 -2 1535 18 1574 l20 40 -238 0 c-141 0 -251 4 -269
10 -49 17 -53 40 -53 285 l0 225 785 0 785 0 0 -234z m2170 -362 l0 -595 91
83 c173 159 276 214 384 205 197 -15 310 -165 367 -487 19 -107 19 -1704 0
-1835 -30 -206 -83 -360 -152 -438 -18 -21 -54 -50 -79 -65 -41 -24 -57 -27
-161 -30 l-115 -4 -95 80 c-52 44 -126 110 -165 146 -38 36 -71 66 -72 66 -2
0 -3 -56 -3 -125 l0 -125 -225 0 -225 0 0 1860 0 1860 225 0 225 0 0 -596z
m2025 -319 c180 -38 317 -146 399 -317 93 -191 115 -330 123 -773 6 -375 3
-406 -49 -424 -20 -7 -170 -11 -440 -11 l-409 0 3 -332 c3 -323 4 -334 26
-383 27 -59 80 -117 140 -152 83 -49 197 -11 241 80 30 63 41 140 41 305 l0
142 226 0 226 0 -6 -157 c-15 -344 -76 -541 -208 -675 -64 -67 -166 -119 -262
-137 -84 -15 -268 -13 -351 4 -225 47 -381 216 -449 486 -46 183 -48 226 -44
1024 5 733 5 752 27 835 69 266 237 421 526 485 80 18 155 18 240 0z m-3705
-1150 l5 -1120 31 -70 30 -70 50 1 c30 1 67 10 94 24 55 28 132 107 170 174
l30 51 0 1068 0 1067 223 -2 222 -3 3 -1387 2 -1388 -225 0 -225 0 0 130 c0
113 -2 130 -16 130 -9 0 -60 -42 -113 -92 -160 -155 -260 -208 -387 -208 -185
0 -280 85 -304 271 -11 94 -15 2531 -3 2543 4 3 97 5 207 4 l201 -3 5 -1120z"/>
<path d="M9652 3750 c-77 -55 -72 9 -72 -933 l0 -844 23 -34 c27 -41 172 -119
219 -119 24 0 41 10 73 43 53 55 89 152 116 305 19 115 19 115 -1 129 -20 14
-20 25 -20 667 0 730 0 727 -65 785 -35 30 -38 31 -134 31 -93 0 -100 -2 -139
-30z"/>
<path d="M11358 3772 c-100 -107 -128 -205 -128 -459 l0 -173 226 0 226 0 -4
238 c-4 255 -8 275 -64 349 -30 40 -108 81 -167 89 -41 6 -44 4 -89 -44z"/>
<path d="M3 5178 c8 -21 272 -959 326 -1158 71 -261 164 -637 205 -825 66
-307 66 -301 66 -1069 0 -683 0 -696 20 -716 19 -19 33 -20 240 -20 207 0 221
1 240 20 20 20 20 33 20 743 l0 722 99 405 c54 223 122 500 150 615 28 116
109 450 181 744 71 293 130 537 130 542 0 6 -103 8 -241 7 l-242 -3 -12 -50
c-142 -570 -265 -1135 -281 -1292 l-7 -63 -38 0 c-35 0 -39 3 -39 26 0 43 -67
370 -176 854 -58 256 -108 480 -111 498 l-6 32 -264 0 c-208 0 -264 -3 -260
-12z"/>
<path d="M2175 4231 c-243 -66 -389 -279 -455 -666 -43 -248 -52 -1076 -15
-1392 64 -545 282 -823 645 -823 157 0 310 70 442 202 64 64 85 93 127 180 53
110 84 220 101 358 17 138 13 1272 -4 1406 -55 412 -178 644 -386 726 -47 19
-79 22 -220 25 -138 2 -177 0 -235 -16z m309 -474 c13 -13 32 -48 43 -78 46
-121 48 -166 48 -869 0 -585 -2 -675 -17 -745 -21 -99 -33 -131 -64 -173 l-26
-33 -110 3 c-105 3 -112 4 -129 28 -10 14 -27 54 -36 90 -17 60 -18 130 -18
855 0 790 0 790 22 830 43 80 103 114 206 115 48 0 62 -4 81 -23z"/>
<path d="M3370 4166 c0 -24 7 -60 16 -81 14 -34 14 -39 0 -54 -14 -16 -16
-125 -16 -1007 0 -1053 4 -1158 50 -1351 51 -214 158 -335 284 -321 107 13
307 128 449 258 l77 72 0 -146 0 -146 225 0 225 0 -2 1408 -3 1407 -222 3
-223 2 -2 -1052 -3 -1053 -26 -55 c-32 -68 -75 -119 -136 -159 -38 -26 -57
-31 -104 -31 -39 0 -63 5 -73 16 -9 8 -17 16 -18 17 -2 1 -5 522 -8 1157 l-5
1155 -242 3 -243 2 0 -44z"/>
</g>
</svg>
